<?xml version="1.0" standalone="yes"?>
<svg xmlns="http://www.w3.org/2000/svg" width="1024" height="880">
<path style="fill:#38543d; stroke:none;" d="M0 0L0 880L1024 880L1024 0L0 0z"/>
<path style="fill:#29af8f; stroke:none;" d="M247 162C260.304 152.628 271.494 138.506 283 127C300.945 109.055 326.78 90.6305 333.37 65C336.826 51.5626 340.492 20.0295 322 15.5332C303.925 11.1384 300.96 32.0193 295.421 45C284.641 70.2637 274.204 95.6727 263.576 121C258.144 133.944 249.455 148.184 247 162M777 162C774.545 148.184 765.856 133.944 760.424 121C749.796 95.6728 739.359 70.2636 728.579 45C723.04 32.0194 720.075 11.1384 702 15.5332C683.508 20.0295 687.174 51.5626 690.63 65C697.312 90.9866 723.804 109.804 742 128C753.188 139.188 764.062 152.886 777 162z"/>
<path style="fill:#fefefe; stroke:none;" d="M532 18.6373C526.161 20.2849 521.126 23.7962 515 24.6991C501.77 26.6489 488.215 23.3091 475 22.9854C466.2 22.7698 454.939 19.3268 447.015 24.7029C435.988 32.1833 426.381 44.8132 416 53.5903C385.944 79.002 375.332 132.538 416.015 153.811C425.217 158.623 438.948 158.993 449 157.41C453.846 156.647 459.11 153.828 464 154.369C477.54 155.866 491.64 163.056 505 166.251C525.988 171.27 545.443 170.96 566 165.255C575.561 162.601 582.036 155.987 591 152.353C598.892 149.152 608.087 150.277 615.996 146.457C631.137 139.144 636.997 116.523 636.971 101C636.954 90.7977 629.338 81.5875 623.257 74C606.668 53.3007 588.438 44.0837 566 31.6875C556.077 26.2054 544.415 15.1343 532 18.6373z"/>
<path style="fill:#29af8f; stroke:none;" d="M183 268C193.851 257.172 199.302 234.075 205.424 220C216.768 193.921 228.799 168.142 240.001 142C244.444 131.631 251.962 120.102 254.042 109C256.772 94.4238 245.585 76.2238 231 73.4676C208.864 69.2844 187.838 89.5911 182.61 110C178.792 124.902 182.999 142.829 183 158L183 268M840 268C844.607 257.02 841 237.944 841 226C841 201.409 839.964 176.565 841.039 152C841.64 138.277 845.364 120.136 840.381 107C832.898 87.2721 810.887 65.2477 788 74.9553C776.079 80.0116 766.295 98.1238 770.504 111C779.535 138.631 794.385 165.414 806.14 192C817.192 216.999 826.49 244.262 840 268z"/>
<path style="fill:#38543d; stroke:none;" d="M444 151L444 152L450 152L444 151z"/>
<path style="fill:#29af8f; stroke:none;" d="M707 222C693.853 224.344 693.368 234.247 705 240.583C721.417 249.525 748.059 236.808 739.387 216.015C735.879 207.604 726.426 205.315 719 201.676C716.111 200.26 711.682 197.928 712.327 194.039C713.824 185.019 723.704 189.578 727 194L740 189C732.28 171.449 700.331 169.259 698.105 192C697.166 201.598 701.169 208.552 710 212.558C714.919 214.789 723.561 216.466 725.863 222.043C727.8 226.735 722.158 230.657 718 230.481C712.781 230.261 709.231 226.262 707 222M274 176L274 188L292 188L292 242L306 242L306 188L325 188L325 176L274 176M329 176L329 242L343 242L343 216C360.695 216.014 354.292 233.051 365.637 240.972C371.187 244.847 386.325 242 393 242C397.491 226.295 420.659 226.134 425 242L440 242L414 176L404 176L380 238C376.333 233.538 366.311 220.075 367.664 214.089C369.781 204.73 378.528 201.764 375.442 190C370.45 170.972 343.601 176 329 176M438 176C442.641 192.967 451.295 209.725 458.011 226C459.835 230.421 461.935 240.266 467.108 241.681C475.622 244.01 477.447 233.866 479.8 228C486.366 211.637 497.385 193.458 500 176L486.649 177.028L480.95 189L470 219L457.811 189L452.301 177.028L438 176M504 176L504 242L544 242L544 230L518 230L518 215L541 215L541 203L518 203L518 188L544 188L544 176L504 176M552 176L552 242L590 242L590 229L565 229L565 176L552 176M596 176L596 242L636 242L636 230L610 230L610 215L633 215L633 203L610 203L610 188L636 188L636 176L596 176M644 176L644 242L657 242L657 216C674.644 216.014 668.645 232.946 679.688 240.972C683.155 243.492 690.888 242 695 242L680 213C693.716 205.824 693.602 185.826 680 178.417C670.309 173.138 654.733 176 644 176M746 199C759.073 198.999 763.212 187.111 768 176L753.513 177.028L746 199z"/>
<path style="fill:#38543d; stroke:none;" d="M343 188L343 205C347.943 205 354.419 206.061 358.891 203.543C364.247 200.528 363.754 193.116 358.891 189.858C354.542 186.944 347.968 188 343 188M657 188L657 205C661.704 205 667.542 205.897 671.956 203.991C677.348 201.662 678.895 193.651 673.772 190.089C669.218 186.924 662.234 188 657 188z"/>
<path style="fill:#29af8f; stroke:none;" d="M165 396C169.807 384.544 166 364.468 166 352L166 250C166 237.366 170.093 212.902 159.826 203.819C137.336 183.926 109.515 207.354 104.666 231C98.6565 260.306 117.875 288.034 129.001 314C140.742 341.4 154.217 368.206 165 396M858 396C866.956 384.914 871.431 367.03 877.306 354C887.186 332.084 896.858 310.053 906.424 288C912.638 273.675 919.84 260.851 920.625 245C921.935 218.537 895.907 181.782 867.015 201.599C853.239 211.047 858 237.161 858 252L858 396z"/>
<path style="fill:#38543d; stroke:none;" d="M408 200L402 220L417 220L408 200z"/>
<path style="fill:#29af8f; stroke:none;" d="M368 335C364.211 332.331 358.806 324.209 354 324.207C349.762 324.205 345.658 330.408 342 332.326C330.056 338.591 315.368 333.535 307.789 322.999C286.406 293.275 330.121 259.224 353 289C370.177 280.989 367.35 268.102 352 260.377C339.804 254.24 323.484 254.351 311 259.454C303.031 262.711 295.777 269.032 290.789 276C274.07 299.354 281.456 334.994 306 349.546C325.249 360.96 358.317 357.869 368 335M505 256.465C442.098 267.786 460.254 366.816 523 354.905C584.471 343.237 566.919 245.32 505 256.465M691 337L691 336L675 323C656.751 348.832 618.068 327.013 625.927 298C630.179 282.306 647.807 272.983 663 278.714C667.334 280.348 672.884 287.816 677.089 287.794C681.057 287.773 687.514 280.386 688.914 277C692.465 268.407 675.076 260.033 669 258.208C649.647 252.396 629.25 257.447 616.096 273.039C584.563 310.416 622.907 369.928 670 353.301C678.971 350.134 684.893 343.99 691 337M377 257L377 354L396 354L396 315L434 315L434 354L453 354L453 257L434 257L434 297L396 297L396 257L377 257M574 257L574 354L593 354L593 257L574 257M700 257L700 354L758 354L758 337L719 337L719 314L753 314L753 297L719 297L719 275L758 275L758 257L700 257M766 258L766 261L771 261L771 275L775 275L775 261L780 261L780 258L766 258M781 258L781 275L785 275L785 267L786 267C786.646 271.272 787.445 274.211 792 275L794 265L795 265L795 275L798 275L798 258L793 258L790 269C787.921 263.57 787.675 258.518 781 258z"/>
<path style="fill:#38543d; stroke:none;" d="M509 276.465C471.027 283.297 481.887 342.13 520 334.685C555.778 327.696 544.655 270.049 509 276.465z"/>
<path style="fill:#29af8f; stroke:none;" d="M194 514C190.359 492.838 178.06 471.072 170.424 451C159.486 422.245 150.974 388.604 135.535 362C126.798 346.944 108.183 335.957 91 343.916C73.7181 351.921 68.7844 382.526 78.7276 398C88.1163 412.611 104.961 424.456 116.961 437C133.417 454.204 150.146 471.146 167 488C175.647 496.647 183.996 506.953 194 514M830 514C840.004 506.953 848.353 496.647 857 488C873.854 471.146 890.583 454.204 907.039 437C919.039 424.456 935.884 412.611 945.272 398C955.216 382.526 950.282 351.921 933 343.916C915.817 335.957 897.202 346.944 888.464 362C873.026 388.604 864.514 422.245 853.576 451C845.94 471.072 833.641 492.838 830 514M525 376L526 377L525 376M449 382L450 383L449 382M398 397L399 398L398 397z"/>
<path style="fill:#ed7b67; stroke:none;" d="M494 397L494 398L498 398L494 397z"/>
<path style="fill:#facf49; stroke:none;" d="M403 418L403 419C455.829 421.269 512.841 465.841 514 522L516 522C517.124 467.531 573.516 420.006 626 420C613.556 408.765 588.023 405.38 572 402.2C514.199 390.727 458.081 399.366 403 418z"/>
<path style="fill:#ed7b67; stroke:none;" d="M531 397L531 398L535 398L531 397M482.667 398.333L483.333 398.667L482.667 398.333M545.667 398.333L546.333 398.667L545.667 398.333M473.667 399.333L474.333 399.667L473.667 399.333M554.667 399.333L555.333 399.667L554.667 399.333M466.667 400.333L467.333 400.667L466.667 400.333M561.667 400.333L562.333 400.667L561.667 400.333M460.667 401.333L461.333 401.667L460.667 401.333M568 401L569 402L568 401M455 402L456 403L455 402M573 402L574 403L573 402M450 403L451 404L450 403M578 403L579 404L578 403M446 404L447 405L446 404M582 404L583 405L582 404M441 405L442 406L441 405M586 405L587 406L586 405M438 406L439 407L438 406M590 406L591 407L590 406M434 407L435 408L434 407M594 407L595 408L594 407M430 408L431 409L430 408M597 408L598 409L597 408M427 409L428 410L427 409M424 410L425 411L424 410M604 410L605 411L604 410M421 411L422 412L421 411M607 411L608 412L607 411M418 412L419 413L418 412M415 413L416 414L415 413M612 413L613 414L612 413M412 414L413 415L412 414M615 414L616 415L615 414M407 416L408 417L407 416M620 416L621 417L620 416M622 417L623 418L622 417M402 418L403 419L402 418M406 419L406 420L409 420L406 419M626 419L627 420L626 419z"/>
<path style="fill:#29af8f; stroke:none;" d="M776 419L777 420L776 419z"/>
<path style="fill:#ed7b67; stroke:none;" d="M416.667 420.333L417.333 420.667L416.667 420.333M615.667 420.333L616.333 420.667L615.667 420.333M422 421L423 422L422 421M609 421L610 422L609 421M426 422L427 423L426 422M604 422L605 423L604 422M430 423L431 424L430 423M600 423L601 424L600 423z"/>
<path style="fill:#29af8f; stroke:none;" d="M789 423L790 424L789 423z"/>
<path style="fill:#ed7b67; stroke:none;" d="M597 424L598 425L597 424M439 426L440 427L439 426z"/>
<path style="fill:#29af8f; stroke:none;" d="M782 426L783 427L782 426z"/>
<path style="fill:#ed7b67; stroke:none;" d="M442 427L443 428L442 427M588 427L589 428L588 427M444 428L445 429L444 428M583 429L584 430L583 429M581 430L582 431L581 430M579 431L580 432L579 431z"/>
<path style="fill:#29af8f; stroke:none;" d="M794 431L795 432L794 431z"/>
<path style="fill:#ed7b67; stroke:none;" d="M577 432L578 433L577 432z"/>
<path style="fill:#29af8f; stroke:none;" d="M739 432L740 433L739 432z"/>
<path style="fill:#ed7b67; stroke:none;" d="M575 433L576 434L575 433M573 434L574 435L573 434z"/>
<path style="fill:#29af8f; stroke:none;" d="M781 434L782 435L781 434z"/>
<path style="fill:#ed7b67; stroke:none;" d="M458 435L459 436L458 435M568 437L569 438L568 437M565 439L566 440L565 439z"/>
<path style="fill:#29af8f; stroke:none;" d="M735 439L736 440L735 439M770 439L771 440L770 439z"/>
<path style="fill:#ed7b67; stroke:none;" d="M467 441L468 442L467 441M391.667 442.333L392.333 442.667L391.667 442.333z"/>
<path style="fill:#facf49; stroke:none;" d="M393 442L393 443L398 443L393 442z"/>
<path style="fill:#fefefe; stroke:none;" d="M398 442.514C378.954 443.71 361.965 448.117 346 459.029C336.68 465.398 328.616 473.613 322.355 483C280.779 545.333 328.768 633.136 405 627.911C418.763 626.967 433.087 622.958 445 615.988C511.342 577.178 505.259 472.996 430 447.667C419.965 444.29 408.653 441.845 398 442.514z"/>
<path style="fill:#facf49; stroke:none;" d="M401 442L401 443L405 443L401 442z"/>
<path style="fill:#ed7b67; stroke:none;" d="M405.667 442.333L406.333 442.667L405.667 442.333M561 442L562 443L561 442M383 443L384 444L383 443z"/>
<path style="fill:#facf49; stroke:none;" d="M384 443L385 444L384 443M413 443L414 444L413 443z"/>
<path style="fill:#ed7b67; stroke:none;" d="M414 443L415 444L414 443M618 443L619 444L618 443z"/>
<path style="fill:#facf49; stroke:none;" d="M619 443L620 444L619 443z"/>
<path style="fill:#fefefe; stroke:none;" d="M620 443.428C605.482 445.507 591.264 450.136 579 458.359C568.939 465.105 560.257 473.951 553.519 484C509.745 549.283 566.281 638.706 644 627.572C657.09 625.696 669.787 620.942 681 613.935C749.13 571.363 730.009 465.836 654 445.735C643.291 442.902 630.997 441.854 620 443.428z"/>
<path style="fill:#facf49; stroke:none;" d="M641 443L642 444L641 443z"/>
<path style="fill:#ed7b67; stroke:none;" d="M642.667 443.333L643.333 443.667L642.667 443.333M378 444L379 445L378 444z"/>
<path style="fill:#facf49; stroke:none;" d="M379 444L380 445L379 444M418 444L419 445L418 444z"/>
<path style="fill:#ed7b67; stroke:none;" d="M419 444L420 445L419 444M471 444L472 445L471 444M612 444L613 445L612 444z"/>
<path style="fill:#facf49; stroke:none;" d="M613 444L614 445L613 444M648 444L649 445L648 444M375 445L376 446L375 445z"/>
<path style="fill:#ed7b67; stroke:none;" d="M423 445L424 446L423 445M557 445L558 446L557 445z"/>
<path style="fill:#facf49; stroke:none;" d="M608 445L609 446L608 445z"/>
<path style="fill:#ed7b67; stroke:none;" d="M653 445L654 446L653 445M371 446L372 447L371 446z"/>
<path style="fill:#facf49; stroke:none;" d="M426 446L427 447L426 446z"/>
<path style="fill:#ed7b67; stroke:none;" d="M604 446L605 447L604 446z"/>
<path style="fill:#facf49; stroke:none;" d="M656 446L657 447L656 446z"/>
<path style="fill:#ed7b67; stroke:none;" d="M368 447L369 448L368 447z"/>
<path style="fill:#facf49; stroke:none;" d="M429 447L430 448L429 447z"/>
<path style="fill:#ed7b67; stroke:none;" d="M601 447L602 448L601 447M660 447L661 448L660 447M365 448L366 449L365 448M432 448L433 449L432 448M598 448L599 449L598 448z"/>
<path style="fill:#facf49; stroke:none;" d="M662 448L663 449L662 448M363 449L364 450L363 449M596 449L597 450L596 449M665 449L666 450L665 449z"/>
<path style="fill:#ed7b67; stroke:none;" d="M437 450L438 451L437 450M478 450L479 451L478 450M593 450L594 451L593 450z"/>
<path style="fill:#facf49; stroke:none;" d="M667 450L668 451L667 450z"/>
<path style="fill:#ed7b67; stroke:none;" d="M439 451L440 452L439 451M479 451L480 452L479 451M591 451L592 452L591 451M441 452L442 453L441 452M480 452L481 453L480 452M549 452L550 453L549 452z"/>
<path style="fill:#facf49; stroke:none;" d="M589 452L590 453L589 452z"/>
<path style="fill:#ed7b67; stroke:none;" d="M443 453L444 454L443 453M481 453L482 454L481 453M548 453L549 454L548 453z"/>
<path style="fill:#facf49; stroke:none;" d="M587 453L588 454L587 453M353 454L354 455L353 454z"/>
<path style="fill:#ed7b67; stroke:none;" d="M482 454L483 455L482 454M547 454L548 455L547 454M585 454L586 455L585 454z"/>
<path style="fill:#29af8f; stroke:none;" d="M301 455L302 456L301 455z"/>
<path style="fill:#ed7b67; stroke:none;" d="M351 455L352 456L351 455M483 455L484 456L483 455z"/>
<path style="fill:#facf49; stroke:none;" d="M677 455L678 456L677 455z"/>
<path style="fill:#ed7b67; stroke:none;" d="M448 456L449 457L448 456M679 456L680 457L679 456z"/>
<path style="fill:#facf49; stroke:none;" d="M348 457L349 458L348 457z"/>
<path style="fill:#ed7b67; stroke:none;" d="M580 457L581 458L580 457M451 458L452 459L451 458z"/>
<path style="fill:#facf49; stroke:none;" d="M682 458L683 459L682 458M345 459L346 460L345 459z"/>
<path style="fill:#ed7b67; stroke:none;" d="M577 459L578 460L577 459M454 460L455 461L454 460M685 460L686 461L685 460z"/>
<path style="fill:#facf49; stroke:none;" d="M455 461L456 462L455 461M341 462L342 463L341 462z"/>
<path style="fill:#ed7b67; stroke:none;" d="M489 462L490 463L489 462M540 462L541 463L540 462M573 462L574 463L573 462z"/>
<path style="fill:#facf49; stroke:none;" d="M572 463L573 464L572 463z"/>
<path style="fill:#ed7b67; stroke:none;" d="M689 463L690 464L689 463z"/>
<path style="fill:#29af8f; stroke:none;" d="M725 463L726 464L725 463z"/>
<path style="fill:#ed7b67; stroke:none;" d="M459 464L460 465L459 464z"/>
<path style="fill:#facf49; stroke:none;" d="M690 464L691 465L690 464z"/>
<path style="fill:#ed7b67; stroke:none;" d="M460 465L461 466L460 465z"/>
<path style="fill:#facf49; stroke:none;" d="M461 466L462 467L461 466z"/>
<path style="fill:#ed7b67; stroke:none;" d="M492 466L493 467L492 466M537 466L538 467L537 466M335 467L336 468L335 467z"/>
<path style="fill:#facf49; stroke:none;" d="M462 467L463 468L462 467z"/>
<path style="fill:#ed7b67; stroke:none;" d="M567 467L568 468L567 467M334 468L335 469L334 468M566 468L567 469L566 468M333 469L334 470L333 469M565 469L566 470L565 469M332 470L333 471L332 470M495 470L496 471L495 470M564 470L565 471L564 470M331 471L332 472L331 471z"/>
<path style="fill:#facf49; stroke:none;" d="M466 471L467 472L466 471z"/>
<path style="fill:#ed7b67; stroke:none;" d="M563 471L564 472L563 471z"/>
<path style="fill:#facf49; stroke:none;" d="M467 472L468 473L467 472z"/>
<path style="fill:#ed7b67; stroke:none;" d="M468 473L469 474L468 473z"/>
<path style="fill:#29af8f; stroke:none;" d="M299 474L300 475L299 474z"/>
<path style="fill:#ed7b67; stroke:none;" d="M469 474L470 475L469 474M531 475L532 476L531 475M702 476L703 477L702 476z"/>
<path style="fill:#facf49; stroke:none;" d="M326 477L327 478L326 477M387 477L388 478L387 477z"/>
<path style="fill:#ed7b67; stroke:none;" d="M388 477L389 478L388 477z"/>
<path style="fill:#38543d; stroke:none;" d="M389 477.439C330.387 486.593 323.704 570.337 380 588.911C388.997 591.879 398.723 592.082 408 590.701C415.016 589.656 421.911 586.679 428 583.123C481.202 552.055 448.297 468.178 389 477.439z"/>
<path style="fill:#facf49; stroke:none;" d="M407 477L408 478L407 477M558 477L559 478L558 477M620 477L621 478L620 477z"/>
<path style="fill:#ed7b67; stroke:none;" d="M621 477L622 478L621 477z"/>
<path style="fill:#38543d; stroke:none;" d="M622 477.439C564.601 486.404 555.641 570.073 612 588.641C621.368 591.728 631.319 592.142 641 590.701C647.985 589.66 654.994 586.729 661 583.073C713.149 551.332 681.789 468.101 622 477.439z"/>
<path style="fill:#ed7b67; stroke:none;" d="M639 477L640 478L639 477z"/>
<path style="fill:#facf49; stroke:none;" d="M640 477L641 478L640 477z"/>
<path style="fill:#ed7b67; stroke:none;" d="M383 478L384 479L383 478M411 478L412 479L411 478z"/>
<path style="fill:#facf49; stroke:none;" d="M412 478L413 479L412 478M472 478L473 479L472 478z"/>
<path style="fill:#ed7b67; stroke:none;" d="M557 478L558 479L557 478M616 478L617 479L616 478M644 478L645 479L644 478z"/>
<path style="fill:#facf49; stroke:none;" d="M645 478L646 479L645 478M379 479L380 480L379 479z"/>
<path style="fill:#ed7b67; stroke:none;" d="M415 479L416 480L415 479M473 479L474 480L473 479z"/>
<path style="fill:#facf49; stroke:none;" d="M612 479L613 480L612 479M648 479L649 480L648 479z"/>
<path style="fill:#ed7b67; stroke:none;" d="M377 480L378 481L377 480z"/>
<path style="fill:#facf49; stroke:none;" d="M418 480L419 481L418 480z"/>
<path style="fill:#ed7b67; stroke:none;" d="M501 480L502 481L501 480M528 480L529 481L528 480z"/>
<path style="fill:#facf49; stroke:none;" d="M651 480L652 481L651 480M705 480L706 481L705 480M323 481L324 482L323 481M374 481L375 482L374 481z"/>
<path style="fill:#ed7b67; stroke:none;" d="M420 481L421 482L420 481z"/>
<path style="fill:#facf49; stroke:none;" d="M555 481L556 482L555 481M607 481L608 482L607 481z"/>
<path style="fill:#ed7b67; stroke:none;" d="M653 481L654 482L653 481M706 481L707 482L706 481z"/>
<path style="fill:#facf49; stroke:none;" d="M372 482L373 483L372 482M475 482L476 483L475 482z"/>
<path style="fill:#ed7b67; stroke:none;" d="M502 482L503 483L502 482M527 482L528 483L527 482M605 482L606 483L605 482M655 482L656 483L655 482z"/>
<path style="fill:#facf49; stroke:none;" d="M370 483L371 484L370 483z"/>
<path style="fill:#ed7b67; stroke:none;" d="M603 483L604 484L603 483M657 483L658 484L657 483z"/>
<path style="fill:#facf49; stroke:none;" d="M321 484L322 485L321 484z"/>
<path style="fill:#ed7b67; stroke:none;" d="M426 484L427 485L426 484M503 484L504 485L503 484M526 484L527 485L526 484z"/>
<path style="fill:#facf49; stroke:none;" d="M601 484L602 485L601 484z"/>
<path style="fill:#ed7b67; stroke:none;" d="M659 484L660 485L659 484M708 484L709 485L708 484z"/>
<path style="fill:#facf49; stroke:none;" d="M477 485L478 486L477 485z"/>
<path style="fill:#29af8f; stroke:none;" d="M268 616C258.112 601.963 243.141 590.141 231 578L160 507C147.247 494.247 130.67 476.46 112.04 491.529C90.7458 508.753 106.325 541.264 122.001 555.911C135.753 568.76 157.662 573.829 175 580.424C194.713 587.923 214.416 595.572 234 603.4C244.809 607.72 256.524 614.024 268 616z"/>
<path style="fill:#facf49; stroke:none;" d="M365 486L366 487L365 486z"/>
<path style="fill:#ed7b67; stroke:none;" d="M504 486L505 487L504 486M525 486L526 487L525 486z"/>
<path style="fill:#facf49; stroke:none;" d="M598 486L599 487L598 486z"/>
<path style="fill:#ed7b67; stroke:none;" d="M662 486L663 487L662 486z"/>
<path style="fill:#29af8f; stroke:none;" d="M756 616C767.476 614.024 779.191 607.72 790 603.4C809.584 595.572 829.287 587.923 849 580.424C866.338 573.829 888.247 568.76 901.999 555.911C917.675 541.264 933.254 508.753 911.96 491.529C893.33 476.46 876.752 494.247 864 507L793 578C780.859 590.141 765.888 601.963 756 616z"/>
<path style="fill:#ed7b67; stroke:none;" d="M319 487L320 488L319 487z"/>
<path style="fill:#facf49; stroke:none;" d="M551 487L552 488L551 487z"/>
<path style="fill:#ed7b67; stroke:none;" d="M432 488L433 489L432 488M479 488L480 489L479 488z"/>
<path style="fill:#facf49; stroke:none;" d="M665 488L666 489L665 488M318 489L319 490L318 489M361 489L362 490L361 489z"/>
<path style="fill:#ed7b67; stroke:none;" d="M594 489L595 490L594 489M711 489L712 490L711 489M360 490L361 491L360 490z"/>
<path style="fill:#facf49; stroke:none;" d="M480 490L481 491L480 490z"/>
<path style="fill:#ed7b67; stroke:none;" d="M506 491L507 492L506 491M523 491L524 492L523 491z"/>
<path style="fill:#facf49; stroke:none;" d="M712 491L713 492L712 491M481 492L482 493L481 492z"/>
<path style="fill:#ed7b67; stroke:none;" d="M548 492L549 493L548 492M507 493L508 494L507 493z"/>
<path style="fill:#facf49; stroke:none;" d="M713 493L714 494L713 493M482 494L483 495L482 494z"/>
<path style="fill:#ed7b67; stroke:none;" d="M547 494L548 495L547 494z"/>
<path style="fill:#facf49; stroke:none;" d="M714 495L715 496L714 495M483 496L484 497L483 496z"/>
<path style="fill:#ed7b67; stroke:none;" d="M508 496L509 497L508 496M521 496L522 497L521 496M546 496L547 497L546 496M353 497L354 498L353 497M389 497L390 498L389 497z"/>
<path style="fill:#facf49; stroke:none;" d="M390 497L391 498L390 497z"/>
<path style="fill:#fefefe; stroke:none;" d="M391 497.465C342.092 506.283 357.701 579.938 406 570.689C452.608 561.764 437.484 489.084 391 497.465z"/>
<path style="fill:#ed7b67; stroke:none;" d="M405 497L406 498L405 497M586 497L587 498L586 497M622 497L623 498L622 497z"/>
<path style="fill:#facf49; stroke:none;" d="M623 497L624 498L623 497z"/>
<path style="fill:#fefefe; stroke:none;" d="M624 497.465C575.728 506.153 590.147 579.868 638 570.738C685.258 561.722 671.058 488.995 624 497.465z"/>
<path style="fill:#ed7b67; stroke:none;" d="M638 497L639 498L638 497z"/>
<path style="fill:#facf49; stroke:none;" d="M715 497L716 498L715 497M352 498L353 499L352 498M386 498L387 499L386 498z"/>
<path style="fill:#ed7b67; stroke:none;" d="M409 498L410 499L409 498M484 498L485 499L484 498z"/>
<path style="fill:#facf49; stroke:none;" d="M585 498L586 499L585 498M619 498L620 499L619 498z"/>
<path style="fill:#ed7b67; stroke:none;" d="M642 498L643 499L642 498M675 498L676 499L675 498z"/>
<path style="fill:#facf49; stroke:none;" d="M313 499L314 500L313 499M383 499L384 500L383 499M443 499L444 500L443 499z"/>
<path style="fill:#ed7b67; stroke:none;" d="M509 499L510 500L509 499M520 499L521 500L520 499z"/>
<path style="fill:#facf49; stroke:none;" d="M616 499L617 500L616 499M676 499L677 500L676 499z"/>
<path style="fill:#ed7b67; stroke:none;" d="M716 499L717 500L716 499z"/>
<path style="fill:#facf49; stroke:none;" d="M381 500L382 501L381 500z"/>
<path style="fill:#ed7b67; stroke:none;" d="M414 500L415 501L414 500M312 501L313 502L312 501M350 501L351 502L350 501z"/>
<path style="fill:#facf49; stroke:none;" d="M379 501L380 502L379 501M544 501L545 502L544 501z"/>
<path style="fill:#ed7b67; stroke:none;" d="M583 501L584 502L583 501z"/>
<path style="fill:#facf49; stroke:none;" d="M612 501L613 502L612 501z"/>
<path style="fill:#ed7b67; stroke:none;" d="M377 502L378 503L377 502M445 502L446 503L445 502M510 502L511 503L510 502M519 502L520 503L519 502M610 502L611 503L610 502z"/>
<path style="fill:#facf49; stroke:none;" d="M650 502L651 503L650 502z"/>
<path style="fill:#ed7b67; stroke:none;" d="M678 502L679 503L678 502z"/>
<path style="fill:#facf49; stroke:none;" d="M717 502L718 503L717 502z"/>
<path style="fill:#ed7b67; stroke:none;" d="M486 503L487 504L486 503M311 504L312 505L311 504M348 504L349 505L348 504z"/>
<path style="fill:#facf49; stroke:none;" d="M420 504L421 505L420 504M543 504L544 505L543 504z"/>
<path style="fill:#ed7b67; stroke:none;" d="M581 504L582 505L581 504M607 504L608 505L607 504z"/>
<path style="fill:#facf49; stroke:none;" d="M653 504L654 505L653 504z"/>
<path style="fill:#ed7b67; stroke:none;" d="M718 504L719 505L718 504M373 505L374 506L373 505z"/>
<path style="fill:#facf49; stroke:none;" d="M447 505L448 506L447 505M606 505L607 506L606 505M680 505L681 506L680 505M372 506L373 507L372 506z"/>
<path style="fill:#ed7b67; stroke:none;" d="M487 506L488 507L487 506M511 506L512 507L511 506M518 506L519 507L518 506z"/>
<path style="fill:#facf49; stroke:none;" d="M605 506L606 507L605 506z"/>
<path style="fill:#ed7b67; stroke:none;" d="M310 507L311 508L310 507z"/>
<path style="fill:#facf49; stroke:none;" d="M371 507L372 508L371 507z"/>
<path style="fill:#ed7b67; stroke:none;" d="M448 507L449 508L448 507z"/>
<path style="fill:#facf49; stroke:none;" d="M542 507L543 508L542 507z"/>
<path style="fill:#ed7b67; stroke:none;" d="M681 507L682 508L681 507M719 507L720 508L719 507z"/>
<path style="fill:#29af8f; stroke:none;" d="M285 508L286 509L285 508z"/>
<path style="fill:#facf49; stroke:none;" d="M370 508L371 509L370 508M369 509L370 510L369 509z"/>
<path style="fill:#ed7b67; stroke:none;" d="M449 509L450 510L449 509M488 509L489 510L488 509z"/>
<path style="fill:#facf49; stroke:none;" d="M602 509L603 510L602 509z"/>
<path style="fill:#ed7b67; stroke:none;" d="M682 509L683 510L682 509M309 510L310 511L309 510M368 510L369 511L368 510M512 510L513 511L512 510M517 510L518 511L517 510z"/>
<path style="fill:#facf49; stroke:none;" d="M541 510L542 511L541 510z"/>
<path style="fill:#ed7b67; stroke:none;" d="M601 510L602 511L601 510z"/>
<path style="fill:#facf49; stroke:none;" d="M309 511L310 512L309 511M427 511L428 512L427 511z"/>
<path style="fill:#ed7b67; stroke:none;" d="M450 511L451 512L450 511M660 511L661 512L660 511z"/>
<path style="fill:#facf49; stroke:none;" d="M683 511L684 512L683 511M720 511L721 512L720 511z"/>
<path style="fill:#ed7b67; stroke:none;" d="M344 512L345 513L344 512M577 512L578 513L577 512z"/>
<path style="fill:#facf49; stroke:none;" d="M366 513L367 514L366 513z"/>
<path style="fill:#ed7b67; stroke:none;" d="M489 513L490 514L489 513M540 513L541 514L540 513M308 514L309 515L308 514z"/>
<path style="fill:#facf49; stroke:none;" d="M343 514L344 515L343 514M429 514L430 515L429 514M540 514L541 515L540 514M576 514L577 515L576 514M662 514L663 515L662 514z"/>
<path style="fill:#ed7b67; stroke:none;" d="M684 514L685 515L684 514z"/>
<path style="fill:#facf49; stroke:none;" d="M308 515L309 516L308 515M392 515L393 516L392 515z"/>
<path style="fill:#ed7b67; stroke:none;" d="M393 515.529C368.192 521.254 378.328 558.156 403 552.606C426.977 547.213 416.647 510.072 393 515.529z"/>
<path style="fill:#facf49; stroke:none;" d="M402 515L403 516L402 515z"/>
<path style="fill:#ed7b67; stroke:none;" d="M513 515L514 516L513 515M516 515L517 516L516 515z"/>
<path style="fill:#29af8f; stroke:none;" d="M625 515.638C601.454 522.444 611.834 559.236 635 553.072C660.058 546.405 649.645 508.515 625 515.638z"/>
<path style="fill:#facf49; stroke:none;" d="M721 515L722 516L721 515z"/>
<path style="fill:#ed7b67; stroke:none;" d="M364 516L365 517L364 516z"/>
<path style="fill:#facf49; stroke:none;" d="M389 516L390 517L389 516M405 516L406 517L405 516M452 516L453 517L452 516z"/>
<path style="fill:#ed7b67; stroke:none;" d="M597 516L598 517L597 516z"/>
<path style="fill:#facf49; stroke:none;" d="M342 517L343 518L342 517M407 517L408 518L407 517M575 517L576 518L575 517z"/>
<path style="fill:#ed7b67; stroke:none;" d="M685 517L686 518L685 517M342 518L343 519L342 518M363 518L364 519L363 518z"/>
<path style="fill:#facf49; stroke:none;" d="M490 518L491 519L490 518z"/>
<path style="fill:#ed7b67; stroke:none;" d="M539 518L540 519L539 518M596 518L597 519L596 518M307 519L308 520L307 519z"/>
<path style="fill:#facf49; stroke:none;" d="M539 519L540 520L539 519z"/>
<path style="fill:#ed7b67; stroke:none;" d="M722 519L723 520L722 519z"/>
<path style="fill:#facf49; stroke:none;" d="M307 520L308 521L307 520M411 520L412 521L411 520M432 520L433 521L432 520z"/>
<path style="fill:#ed7b67; stroke:none;" d="M453 520L454 521L453 520z"/>
<path style="fill:#facf49; stroke:none;" d="M665 520L666 521L665 520M686 520L687 521L686 520M722 520L723 521L722 520M341 521L342 522L341 521M362 521L363 522L362 521M574 521L575 522L574 521z"/>
<path style="fill:#ed7b67; stroke:none;" d="M341 522L342 523L341 522M514 522L514 524L516 524L516 522L514 522z"/>
<path style="fill:#facf49; stroke:none;" d="M381 523L382 524L381 523M433 523L434 524L433 523z"/>
<path style="fill:#ed7b67; stroke:none;" d="M594 523L595 524L594 523z"/>
<path style="fill:#facf49; stroke:none;" d="M666 523L667 524L666 523M361 524L362 525L361 524M414 524L415 525L414 524M454 524L455 525L454 524z"/>
<path style="fill:#ed7b67; stroke:none;" d="M491 524L492 525L491 524M538.333 524.667L538.667 525.333L538.333 524.667z"/>
<path style="fill:#facf49; stroke:none;" d="M594 524L595 525L594 524z"/>
<path style="fill:#ed7b67; stroke:none;" d="M454 525L455 526L454 525z"/>
<path style="fill:#facf49; stroke:none;" d="M491.333 525.667L491.667 526.333L491.333 525.667M687 525L688 526L687 525M415 526L416 527L415 526z"/>
<path style="fill:#ed7b67; stroke:none;" d="M434 526L435 527L434 526z"/>
<path style="fill:#facf49; stroke:none;" d="M538 526L539 527L538 526M573 526L574 527L573 526M648 526L649 527L648 526z"/>
<path style="fill:#ed7b67; stroke:none;" d="M687 526L688 527L687 526M306.333 527.667L306.667 528.333L306.333 527.667z"/>
<path style="fill:#facf49; stroke:none;" d="M340 527L341 528L340 527M379 527L380 528L379 527M434 527L435 528L434 527z"/>
<path style="fill:#ed7b67; stroke:none;" d="M573.333 527.667L573.667 528.333L573.333 527.667z"/>
<path style="fill:#facf49; stroke:none;" d="M667 527L668 528L667 527z"/>
<path style="fill:#ed7b67; stroke:none;" d="M723.333 527.667L723.667 528.333L723.333 527.667M340.333 528.667L340.667 529.333L340.333 528.667M360 528L361 529L360 528M593 528L594 529L593 528z"/>
<path style="fill:#facf49; stroke:none;" d="M306 529L306 533L307 533L306 529M360 529L361 530L360 529M416 529L417 530L416 529M593 529L594 530L593 529M649 529L650 530L649 529M723.333 529.667L723.667 530.333L723.333 529.667M378.333 530.667L378.667 531.333L378.333 530.667M378 537L379 538L378 537M306 538L306 541L307 541L306 538M360 538L361 539L360 538M416 538L417 539L416 538M593.333 538.667L593.667 539.333L593.333 538.667z"/>
<path style="fill:#ed7b67; stroke:none;" d="M340 539L341 540L340 539M360 539L361 540L360 539M573.333 539.667L573.667 540.333L573.333 539.667z"/>
<path style="fill:#facf49; stroke:none;" d="M340.333 540.667L340.667 541.333L340.333 540.667M434 540L435 541L434 540z"/>
<path style="fill:#ed7b67; stroke:none;" d="M593 540L594 541L593 540z"/>
<path style="fill:#facf49; stroke:none;" d="M667 540L668 541L667 540M723 540L723 543L724 543L723 540z"/>
<path style="fill:#ed7b67; stroke:none;" d="M306 541L306 544L307 544L306 541M434 541L435 542L434 541z"/>
<path style="fill:#facf49; stroke:none;" d="M573 541L574 542L573 541z"/>
<path style="fill:#ed7b67; stroke:none;" d="M667 541L668 542L667 541M687.333 541.667L687.667 542.333L687.333 541.667M454 542L455 543L454 542z"/>
<path style="fill:#facf49; stroke:none;" d="M380 543L381 544L380 543M454 543L455 544L454 543M687 543L688 544L687 543z"/>
<path style="fill:#ed7b67; stroke:none;" d="M723.333 543.667L723.667 544.333L723.333 543.667M361 544L362 545L361 544z"/>
<path style="fill:#facf49; stroke:none;" d="M491 544L492 545L491 544M538.333 544.667L538.667 545.333L538.333 544.667z"/>
<path style="fill:#ed7b67; stroke:none;" d="M594 544L595 545L594 544z"/>
<path style="fill:#facf49; stroke:none;" d="M413 545L414 546L413 545z"/>
<path style="fill:#ed7b67; stroke:none;" d="M433 545L434 546L433 545M491.333 545.667L491.667 546.333L491.333 545.667M666 545L667 546L666 545M341 546L342 547L341 546M538 546L539 547L538 546M574 546L575 547L574 546M362 547L363 548L362 547z"/>
<path style="fill:#facf49; stroke:none;" d="M383 547L384 548L383 547z"/>
<path style="fill:#ed7b67; stroke:none;" d="M453 547L454 548L453 547M595 547L596 548L595 547z"/>
<path style="fill:#facf49; stroke:none;" d="M616 547L617 548L616 547z"/>
<path style="fill:#ed7b67; stroke:none;" d="M686 547L687 548L686 547z"/>
<path style="fill:#facf49; stroke:none;" d="M384 548L385 549L384 548z"/>
<path style="fill:#ed7b67; stroke:none;" d="M432 548L433 549L432 548z"/>
<path style="fill:#facf49; stroke:none;" d="M453 548L454 549L453 548M617 548L618 549L617 548M307 549L308 550L307 549M363 549L364 550L363 549M409 549L410 550L409 549M596 549L597 550L596 549z"/>
<path style="fill:#ed7b67; stroke:none;" d="M307 550L308 551L307 550z"/>
<path style="fill:#facf49; stroke:none;" d="M342 550L343 551L342 550z"/>
<path style="fill:#ed7b67; stroke:none;" d="M431 550L432 551L431 550M575 550L576 551L575 550M664 550L665 551L664 550z"/>
<path style="fill:#facf49; stroke:none;" d="M722 550L723 551L722 550M364 551L365 552L364 551M406 551L407 552L406 551z"/>
<path style="fill:#ed7b67; stroke:none;" d="M452 551L453 552L452 551z"/>
<path style="fill:#facf49; stroke:none;" d="M490 551L491 552L490 551M539 551L540 552L539 551M639 551L640 552L639 551M685 551L686 552L685 551z"/>
<path style="fill:#ed7b67; stroke:none;" d="M722 551L723 552L722 551z"/>
<path style="fill:#facf49; stroke:none;" d="M391 552L392 553L391 552z"/>
<path style="fill:#ed7b67; stroke:none;" d="M430 552L431 553L430 552M490 552L491 553L490 552M539 552L540 553L539 552M663 552L664 553L663 552z"/>
<path style="fill:#facf49; stroke:none;" d="M343 553L344 554L343 553z"/>
<path style="fill:#ed7b67; stroke:none;" d="M365 553L366 554L365 553z"/>
<path style="fill:#facf49; stroke:none;" d="M395 553L395 554L401 554L395 553z"/>
<path style="fill:#ed7b67; stroke:none;" d="M576 553L577 554L576 553z"/>
<path style="fill:#facf49; stroke:none;" d="M598 553L599 554L598 553M451 554L452 555L451 554M684 554L685 555L684 554z"/>
<path style="fill:#ed7b67; stroke:none;" d="M308 555L309 556L308 555z"/>
<path style="fill:#facf49; stroke:none;" d="M428 555L429 556L428 555z"/>
<path style="fill:#ed7b67; stroke:none;" d="M661 555L662 556L661 555z"/>
<path style="fill:#facf49; stroke:none;" d="M721 555L722 556L721 555z"/>
<path style="fill:#ed7b67; stroke:none;" d="M367 556L368 557L367 556z"/>
<path style="fill:#facf49; stroke:none;" d="M489 556L490 557L489 556M540 556L541 557L540 556M577 556L578 557L577 556M600 556L601 557L600 556z"/>
<path style="fill:#ed7b67; stroke:none;" d="M683 556L684 557L683 556M721 556L722 557L721 556z"/>
<path style="fill:#29af8f; stroke:none;" d="M284 557L285 558L284 557z"/>
<path style="fill:#ed7b67; stroke:none;" d="M540 557L541 558L540 557z"/>
<path style="fill:#facf49; stroke:none;" d="M345 558L346 559L345 558M578 558L579 559L578 558z"/>
<path style="fill:#ed7b67; stroke:none;" d="M309 559L310 560L309 559M425 559L426 560L425 559z"/>
<path style="fill:#facf49; stroke:none;" d="M720 559L721 560L720 559M346 560L347 561L346 560z"/>
<path style="fill:#ed7b67; stroke:none;" d="M424 560L425 561L424 560z"/>
<path style="fill:#facf49; stroke:none;" d="M488 560L489 561L488 560M541 560L542 561L541 560M579 560L580 561L579 560z"/>
<path style="fill:#ed7b67; stroke:none;" d="M657 560L658 561L657 560M423 561L424 562L423 561M656 561L657 562L656 561z"/>
<path style="fill:#facf49; stroke:none;" d="M310 562L311 563L310 562M347 562L348 563L347 562M580 562L581 563L580 562z"/>
<path style="fill:#ed7b67; stroke:none;" d="M680 562L681 563L680 562z"/>
<path style="fill:#29af8f; stroke:none;" d="M744 562L745 563L744 562z"/>
<path style="fill:#facf49; stroke:none;" d="M487 563L488 564L487 563z"/>
<path style="fill:#ed7b67; stroke:none;" d="M719 563L720 564L719 563M375 564L376 565L375 564M446 564L447 565L446 564M542 564L543 565L542 564M608 564L609 565L608 564z"/>
<path style="fill:#facf49; stroke:none;" d="M679 564L680 565L679 564M311 565L312 566L311 565z"/>
<path style="fill:#ed7b67; stroke:none;" d="M349 565L350 566L349 565M418 565L419 566L418 565M582 565L583 566L582 565M651 565L652 566L651 565M378 566L379 567L378 566z"/>
<path style="fill:#facf49; stroke:none;" d="M416 566L417 567L416 566M486 566L487 567L486 566z"/>
<path style="fill:#ed7b67; stroke:none;" d="M611 566L612 567L611 566z"/>
<path style="fill:#facf49; stroke:none;" d="M649 566L650 567L649 566z"/>
<path style="fill:#ed7b67; stroke:none;" d="M718 566L719 567L718 566z"/>
<path style="fill:#facf49; stroke:none;" d="M380 567L381 568L380 567z"/>
<path style="fill:#ed7b67; stroke:none;" d="M444 567L445 568L444 567M543 567L544 568L543 567z"/>
<path style="fill:#facf49; stroke:none;" d="M613 567L614 568L613 567M677 567L678 568L677 567M312 568L313 569L312 568M351 568L352 569L351 568z"/>
<path style="fill:#ed7b67; stroke:none;" d="M382 568L383 569L382 568z"/>
<path style="fill:#facf49; stroke:none;" d="M584 568L585 569L584 568M615 568L616 569L615 568M645 568L646 569L645 568z"/>
<path style="fill:#ed7b67; stroke:none;" d="M352 569L353 570L352 569M410 569L411 570L410 569M485 569L486 570L485 569z"/>
<path style="fill:#facf49; stroke:none;" d="M544 569L545 570L544 569z"/>
<path style="fill:#ed7b67; stroke:none;" d="M617 569L618 570L617 569M643 569L644 570L643 569z"/>
<path style="fill:#facf49; stroke:none;" d="M388 570L389 571L388 570z"/>
<path style="fill:#ed7b67; stroke:none;" d="M407 570L408 571L407 570z"/>
<path style="fill:#facf49; stroke:none;" d="M621 570L622 571L621 570M639 570L640 571L639 570z"/>
<path style="fill:#ed7b67; stroke:none;" d="M640 570L641 571L640 570M392.667 571.333L393.333 571.667L392.667 571.333z"/>
<path style="fill:#facf49; stroke:none;" d="M394.667 571.333L395.333 571.667L394.667 571.333M400.667 571.333L401.333 571.667L400.667 571.333z"/>
<path style="fill:#ed7b67; stroke:none;" d="M402 571L403 572L402 571z"/>
<path style="fill:#facf49; stroke:none;" d="M441 571L442 572L441 571M484 571L485 572L484 571z"/>
<path style="fill:#ed7b67; stroke:none;" d="M625.667 571.333L626.333 571.667L625.667 571.333z"/>
<path style="fill:#facf49; stroke:none;" d="M627.667 571.333L628.333 571.667L627.667 571.333M633.667 571.333L634.333 571.667L633.667 571.333z"/>
<path style="fill:#ed7b67; stroke:none;" d="M635 571L636 572L635 571M716 571L717 572L716 571M440 572L441 573L440 572M545 572L546 573L545 572z"/>
<path style="fill:#facf49; stroke:none;" d="M673 572L674 573L673 572z"/>
<path style="fill:#ed7b67; stroke:none;" d="M314 573L315 574L314 573M439 573L440 574L439 573M672 573L673 574L672 573z"/>
<path style="fill:#facf49; stroke:none;" d="M715 573L716 574L715 573z"/>
<path style="fill:#ed7b67; stroke:none;" d="M438 574L439 575L438 574M546 574L547 575L546 574z"/>
<path style="fill:#facf49; stroke:none;" d="M589 574L590 575L589 574z"/>
<path style="fill:#ed7b67; stroke:none;" d="M671 574L672 575L671 574z"/>
<path style="fill:#facf49; stroke:none;" d="M315 575L316 576L315 575z"/>
<path style="fill:#ed7b67; stroke:none;" d="M437 575L438 576L437 575z"/>
<path style="fill:#facf49; stroke:none;" d="M590 575L591 576L590 575z"/>
<path style="fill:#ed7b67; stroke:none;" d="M670 575L671 576L670 575M436 576L437 577L436 576z"/>
<path style="fill:#facf49; stroke:none;" d="M547 576L548 577L547 576z"/>
<path style="fill:#ed7b67; stroke:none;" d="M669 576L670 577L669 576M316 577L317 578L316 577z"/>
<path style="fill:#facf49; stroke:none;" d="M435 577L436 578L435 577M668 577L669 578L668 577M434 578L435 579L434 578M548 578L549 579L548 578z"/>
<path style="fill:#ed7b67; stroke:none;" d="M317 579L318 580L317 579M362 579L363 580L362 579z"/>
<path style="fill:#facf49; stroke:none;" d="M363 580L364 581L363 580z"/>
<path style="fill:#ed7b67; stroke:none;" d="M549 580L550 581L549 580z"/>
<path style="fill:#facf49; stroke:none;" d="M596 580L597 581L596 580z"/>
<path style="fill:#ed7b67; stroke:none;" d="M664 580L665 581L664 580z"/>
<path style="fill:#facf49; stroke:none;" d="M430 581L431 582L430 581M479 581L480 582L479 581M711 581L712 582L711 581M366 582L367 583L366 582z"/>
<path style="fill:#ed7b67; stroke:none;" d="M599 582L600 583L599 582z"/>
<path style="fill:#facf49; stroke:none;" d="M427 583L428 584L427 583z"/>
<path style="fill:#ed7b67; stroke:none;" d="M478 583L479 584L478 583M710 583L711 584L710 583z"/>
<path style="fill:#facf49; stroke:none;" d="M320 584L321 585L320 584z"/>
<path style="fill:#ed7b67; stroke:none;" d="M425 584L426 585L425 584z"/>
<path style="fill:#facf49; stroke:none;" d="M658 584L659 585L658 584M371 585L372 586L371 585z"/>
<path style="fill:#ed7b67; stroke:none;" d="M423 585L424 586L423 585z"/>
<path style="fill:#facf49; stroke:none;" d="M552 585L553 586L552 585M604 585L605 586L604 585z"/>
<path style="fill:#ed7b67; stroke:none;" d="M656 585L657 586L656 585z"/>
<path style="fill:#facf49; stroke:none;" d="M373 586L374 587L373 586z"/>
<path style="fill:#ed7b67; stroke:none;" d="M421 586L422 587L421 586z"/>
<path style="fill:#facf49; stroke:none;" d="M476 586L477 587L476 586M606 586L607 587L606 586z"/>
<path style="fill:#ed7b67; stroke:none;" d="M654 586L655 587L654 586z"/>
<path style="fill:#facf49; stroke:none;" d="M708 586L709 587L708 586M322 587L323 588L322 587z"/>
<path style="fill:#ed7b67; stroke:none;" d="M376 587L377 588L376 587z"/>
<path style="fill:#facf49; stroke:none;" d="M419 587L420 588L419 587M652 587L653 588L652 587M378 588L379 589L378 588z"/>
<path style="fill:#ed7b67; stroke:none;" d="M416 588L417 589L416 588z"/>
<path style="fill:#facf49; stroke:none;" d="M554 588L555 589L554 588M611 588L612 589L611 588z"/>
<path style="fill:#ed7b67; stroke:none;" d="M649 588L650 589L649 588z"/>
<path style="fill:#facf49; stroke:none;" d="M381 589L382 590L381 589M413 589L414 590L413 589z"/>
<path style="fill:#ed7b67; stroke:none;" d="M474 589L475 590L474 589z"/>
<path style="fill:#facf49; stroke:none;" d="M614 589L615 590L614 589M646 589L647 590L646 589z"/>
<path style="fill:#ed7b67; stroke:none;" d="M706 589L707 590L706 589z"/>
<path style="fill:#29af8f; stroke:none;" d="M734 589L735 590L734 589z"/>
<path style="fill:#ed7b67; stroke:none;" d="M324 590L325 591L324 590z"/>
<path style="fill:#facf49; stroke:none;" d="M385 590L386 591L385 590z"/>
<path style="fill:#ed7b67; stroke:none;" d="M386 590L387 591L386 590z"/>
<path style="fill:#facf49; stroke:none;" d="M409 590L410 591L409 590M618 590L619 591L618 590z"/>
<path style="fill:#ed7b67; stroke:none;" d="M619 590L620 591L619 590z"/>
<path style="fill:#facf49; stroke:none;" d="M642 590L643 591L642 590M325 591L326 592L325 591M391.667 591.333L392.333 591.667L391.667 591.333z"/>
<path style="fill:#ed7b67; stroke:none;" d="M393.667 591.333L394.333 591.667L393.667 591.333M400 591L400 592L403 592L400 591z"/>
<path style="fill:#facf49; stroke:none;" d="M403 591L404 592L403 591z"/>
<path style="fill:#ed7b67; stroke:none;" d="M556 591L557 592L556 591z"/>
<path style="fill:#facf49; stroke:none;" d="M624.667 591.333L625.333 591.667L624.667 591.333z"/>
<path style="fill:#ed7b67; stroke:none;" d="M626.667 591.333L627.333 591.667L626.667 591.333M633 591L633 592L636 592L633 591z"/>
<path style="fill:#facf49; stroke:none;" d="M636 591L637 592L636 591M557 592L558 593L557 592z"/>
<path style="fill:#ed7b67; stroke:none;" d="M471 593L472 594L471 593M703 593L704 594L703 593z"/>
<path style="fill:#facf49; stroke:none;" d="M470 594L471 595L470 594z"/>
<path style="fill:#ed7b67; stroke:none;" d="M328 595L329 596L328 595z"/>
<path style="fill:#facf49; stroke:none;" d="M329 596L330 597L329 596z"/>
<path style="fill:#ed7b67; stroke:none;" d="M560 596L561 597L560 596z"/>
<path style="fill:#facf49; stroke:none;" d="M330 597L331 598L330 597z"/>
<path style="fill:#ed7b67; stroke:none;" d="M561 597L562 598L561 597z"/>
<path style="fill:#facf49; stroke:none;" d="M562 598L563 599L562 598M563 599L564 600L563 599M564 600L565 601L564 600z"/>
<path style="fill:#ed7b67; stroke:none;" d="M697 600L698 601L697 600M696 601L697 602L696 601z"/>
<path style="fill:#facf49; stroke:none;" d="M566 602L567 603L566 602z"/>
<path style="fill:#ed7b67; stroke:none;" d="M695 602L696 603L695 602z"/>
<path style="fill:#facf49; stroke:none;" d="M567 603L568 604L567 603M337 604L338 605L337 604M568 604L569 605L568 604z"/>
<path style="fill:#ed7b67; stroke:none;" d="M338 605L339 606L338 605M569 605L570 606L569 605z"/>
<path style="fill:#29af8f; stroke:none;" d="M724 605L725 606L724 605z"/>
<path style="fill:#facf49; stroke:none;" d="M458 606L459 607L458 606z"/>
<path style="fill:#ed7b67; stroke:none;" d="M457 607L458 608L457 607z"/>
<path style="fill:#facf49; stroke:none;" d="M689 607L690 608L689 607z"/>
<path style="fill:#ed7b67; stroke:none;" d="M688 608L689 609L688 608M343 609L344 610L343 609M574 609L575 610L574 609M453 610L454 611L453 610z"/>
<path style="fill:#facf49; stroke:none;" d="M346 611L347 612L346 611z"/>
<path style="fill:#ed7b67; stroke:none;" d="M684 611L685 612L684 611M347 612L348 613L347 612z"/>
<path style="fill:#facf49; stroke:none;" d="M450 612L451 613L450 612z"/>
<path style="fill:#ed7b67; stroke:none;" d="M578 612L579 613L578 612z"/>
<path style="fill:#facf49; stroke:none;" d="M349 613L350 614L349 613M681 613L682 614L681 613z"/>
<path style="fill:#29af8f; stroke:none;" d="M380 683C369.42 672.733 347.568 667.574 334 661.719C310.977 651.784 287.859 641.998 265 631.694C252.301 625.971 237.663 617.09 224 614.379C205.73 610.754 182.462 623.132 182.054 643C181.75 657.83 195.957 678.682 211 681.722C228.87 685.334 250.747 682 269 682C305.94 682 342.986 683 380 683z"/>
<path style="fill:#ed7b67; stroke:none;" d="M447 614L448 615L447 614z"/>
<path style="fill:#29af8f; stroke:none;" d="M644 682C655.456 686.807 675.532 683 688 683C717.058 683 745.954 682 775 682C786.596 682 804.13 685.287 815 681.157C832.677 674.44 847.63 650.323 839.471 632C833.401 618.37 810.925 610.405 797 615.244C772.483 623.763 748.813 636.246 725 646.576C698.203 658.2 669.767 668.263 644 682z"/>
<path style="fill:#ed7b67; stroke:none;" d="M352 615L353 616L352 615z"/>
<path style="fill:#facf49; stroke:none;" d="M445 615L446 616L445 615M583 615L584 616L583 615z"/>
<path style="fill:#ed7b67; stroke:none;" d="M678 615L679 616L678 615z"/>
<path style="fill:#facf49; stroke:none;" d="M354 616L355 617L354 616M676 616L677 617L676 616M356 617L357 618L356 617z"/>
<path style="fill:#29af8f; stroke:none;" d="M547 617L550 620L547 617z"/>
<path style="fill:#facf49; stroke:none;" d="M674 617L675 618L674 617M360 619L361 620L360 619M670 619L671 620L670 619M362 620L363 621L362 620M593 620L594 621L593 620M668 620L669 621L668 620z"/>
<path style="fill:#ed7b67; stroke:none;" d="M364 621L365 622L364 621M433 621L434 622L433 621z"/>
<path style="fill:#facf49; stroke:none;" d="M595 621L596 622L595 621z"/>
<path style="fill:#ed7b67; stroke:none;" d="M666 621L667 622L666 621z"/>
<path style="fill:#facf49; stroke:none;" d="M367 622L368 623L367 622M430 622L431 623L430 622M663 622L664 623L663 622M370 623L371 624L370 623M427 623L428 624L427 623z"/>
<path style="fill:#ed7b67; stroke:none;" d="M600 623L601 624L600 623M373 624L374 625L373 624z"/>
<path style="fill:#facf49; stroke:none;" d="M424 624L425 625L424 624z"/>
<path style="fill:#ed7b67; stroke:none;" d="M603 624L604 625L603 624z"/>
<path style="fill:#facf49; stroke:none;" d="M657 624L658 625L657 624z"/>
<path style="fill:#ed7b67; stroke:none;" d="M658 624L659 625L658 624z"/>
<path style="fill:#facf49; stroke:none;" d="M377 625L378 626L377 625M420 625L421 626L420 625z"/>
<path style="fill:#ed7b67; stroke:none;" d="M421 625L422 626L421 625z"/>
<path style="fill:#facf49; stroke:none;" d="M607 625L608 626L607 625M654 625L655 626L654 625z"/>
<path style="fill:#ed7b67; stroke:none;" d="M381 626L382 627L381 626z"/>
<path style="fill:#facf49; stroke:none;" d="M382 626L383 627L382 626M415 626L416 627L415 626z"/>
<path style="fill:#ed7b67; stroke:none;" d="M416 626L417 627L416 626z"/>
<path style="fill:#facf49; stroke:none;" d="M611 626L612 627L611 626z"/>
<path style="fill:#ed7b67; stroke:none;" d="M650 626L651 627L650 626M388 627L389 628L388 627z"/>
<path style="fill:#facf49; stroke:none;" d="M389.667 627.333L390.333 627.667L389.667 627.333M408.667 627.333L409.333 627.667L408.667 627.333z"/>
<path style="fill:#ed7b67; stroke:none;" d="M410 627L411 628L410 627M616 627L617 628L616 627z"/>
<path style="fill:#facf49; stroke:none;" d="M617 627L618 628L617 627M644 627L645 628L644 627z"/>
<path style="fill:#ed7b67; stroke:none;" d="M645 627L646 628L645 627M624 628L624 629L627 629L624 628z"/>
<path style="fill:#facf49; stroke:none;" d="M627 628L627 629L635 629L627 628z"/>
<path style="fill:#ed7b67; stroke:none;" d="M635.667 628.333L636.333 628.667L635.667 628.333z"/>
<path style="fill:#29af8f; stroke:none;" d="M700 629L701 630L700 629M334 632L335 633L334 632M588 644L589 645L588 644M380 650L381 651L380 650M503 717L503 761C497.825 756.525 492.835 753.132 486 751.924C429.499 741.933 439.349 851.044 492 829.525C497.526 827.266 501.142 823.38 505 819L505 831L520 831L520 717L503 717M620 721.769C607.518 722.326 608.824 741.693 621 740.767C633.167 739.842 632.521 721.211 620 721.769M168 731L169 732L168 731M266 740L267 741L266 740M861 746L862 747L861 746z"/>
<path style="fill:#facf49; stroke:none;" d="M862.001 746.653C844.954 752.024 853.749 778.758 871 773.347C888.858 767.746 879.792 741.047 862.001 746.653z"/>
<path style="fill:#29af8f; stroke:none;" d="M859 747L860 748L859 747M875 748L876 749L875 748M863 749L864 750L863 749z"/>
<path style="fill:#38543d; stroke:none;" d="M873 769L873 768L867 763L866 763L866 768L860 768L859 753C865.383 751.48 877.324 751.8 871 761L871 762L874 767C882.718 758.694 871.128 744.285 861.105 750.859C848.767 758.95 860.882 774.105 873 769z"/>
<path style="fill:#29af8f; stroke:none;" d="M868.667 749.333L869.333 749.667L868.667 749.333M877 750L878 751L877 750M383 771C397.395 766.855 420.87 757.326 422 782C410.491 782 398.73 781.332 388 786.324C372.371 793.595 368.152 816.542 383.015 827.2C395.433 836.106 412.613 831.475 423 822L423 831L438 831C438 811.429 444.498 777.595 432.362 761.015C424.354 750.074 394.717 746.023 384.603 756.702C381.627 759.845 383 767.002 383 771M742 751.425C733.307 752.594 724.638 754.758 718.184 761.185C702.888 776.42 703.107 808.777 719.174 823.381C728.513 831.871 741.89 833.285 754 831.816C800.808 826.136 790.66 744.88 742 751.425M873 751L874 752L873 751M878 751L879 752L878 751M645 813L645 828C663.076 832.144 694.591 836.122 697.707 810C698.161 806.196 697.415 802.47 695.811 799C689.792 785.976 674.008 786.519 665.573 776.671C656.985 766.644 674.809 764.459 681 765.619C685.439 766.451 689.531 768.331 694 769L695 755C688.467 753.733 681.686 752.029 675 752.029C657.193 752.029 634.692 768.766 651.329 786.826C658.551 794.665 672.507 796.074 678.254 805.043C686.175 817.406 664.862 818.956 658 817.324C653.542 816.264 649.413 814.207 645 813M814 763L813 763L813 753L798 753L798 831L814 831C814 807.122 805.807 766.555 840 768L840 752C829.584 752 819.058 752.184 814 763M854 752L855 753L854 752z"/>
<path style="fill:#facf49; stroke:none;" d="M860 752C860 757.711 857.79 766.797 865 768L865 762L866 762C867.839 766.046 869.512 767.654 874 768C870.726 756.129 875.403 752 860 752z"/>
<path style="fill:#29af8f; stroke:none;" d="M874 752L875 753L874 752M528 753L566 831L590.37 784L605 753L588.637 754.028L581.753 766L567 796L553.309 767L546.363 754.028L528 753M612 753L612 831L629 831L629 753L612 753M859 753L860 754L859 753M875 753L876 754L875 753M853 754L854 755L853 754M857 754L858 755L857 754M859 755L860 756L859 755M865 755L865 758L866 758L865 755z"/>
<path style="fill:#38543d; stroke:none;" d="M866 755L866 758L869 757L869 756L866 755z"/>
<path style="fill:#29af8f; stroke:none;" d="M856 756L857 757L856 756M313 757L314 758L313 757M868 757L869 758L868 757M852 758L853 759L852 758M877 758L878 759L877 758M852 761L853 762L852 761M877 761L878 762L877 761M865 762L865 768L866 768L865 762M856 763L857 764L856 763M872 763L873 764L872 763M331 765L332 766L331 765z"/>
<path style="fill:#38543d; stroke:none;" d="M479 765.533C456.148 771.088 460.941 824.033 488 817.467C512.338 811.561 507.407 758.628 479 765.533M740 765.558C714.563 772.232 722.105 825.992 751 818.072C777.296 810.864 770.171 757.642 740 765.558z"/>
<path style="fill:#29af8f; stroke:none;" d="M853 765L854 766L853 765M857 765L858 766L857 765M873 765L874 766L873 765M321 766L322 767L321 766M879 766L880 767L879 766M860 767L861 768L860 767M874 767L875 768L874 767M873 768L874 769L873 768M854 769L855 770L854 769M877 769L878 770L877 769M315 770L316 771L315 770M876 770L877 771L876 770M859 772L860 773L859 772M873 772L874 773L873 772M861 773L862 774L861 773M871 773L872 774L871 773M862 774L863 775L862 774M310 778L311 779L310 778z"/>
<path style="fill:#38543d; stroke:none;" d="M422 794C417.044 794 411.932 793.644 407 794.174C404.315 794.462 401.497 795.089 399.001 796.133C379.165 804.429 398.609 827.812 414.895 815.2C417.608 813.099 419.314 810.164 420.532 807C422.155 802.78 422 798.442 422 794z"/>
<path style="fill:#29af8f; stroke:none;" d="M308 795L309 796L308 795z"/>
</svg>
